<svg width="308" height="94" viewBox="0 0 308 94" fill="none" xmlns="http://www.w3.org/2000/svg" xmlns:c2pa="http://c2pa.org/manifest"><metadata><c2pa:manifest>AAAWgmp1bWIAAAAeanVtZGMycGEAEQAQgAAAqgA4m3EDYzJwYQAAABZcanVtYgAAAEdqdW1kYzJtYQARABCAAACqADibcQN1cm46YzJwYTpjOGQ5MDgyZi03MDg5LTQ5ZGQtYjE2NS0zODFhNWVhYTQyMTAAAAADl2p1bWIAAAApanVtZGMyYXMAEQAQgAAAqgA4m3EDYzJwYS5hc3NlcnRpb25zAAAAALxqdW1iAAAARGp1bWRjYm9yABEAEIAAAKoAOJtxE2MycGEuaW5ncmVkaWVudC52MwAAAAAYYzJzaOLD7smOuThFipcjL4IscJEAAABwY2JvcqNpZGM6Zm9ybWF0bWltYWdlL3N2Zyt4bWxqaW5zdGFuY2VJRHgseG1wOmlpZDoxYzgzZDBmMC1jZjQ5LTQxNWItYmQ5NS1hN2FkZDM2NWY1YzFscmVsYXRpb25zaGlwaHBhcmVudE9mAAAB4mp1bWIAAABBanVtZGNib3IAEQAQgAAAqgA4m3ETYzJwYS5hY3Rpb25zLnYyAAAAABhjMnNo/HmDViXNF8p9nbx/zprhAgAAAZljYm9yomdhY3Rpb25zgqJmYWN0aW9ua2MycGEub3BlbmVkanBhcmFtZXRlcnOha2luZ3JlZGllbnRzgaJjdXJseC1zZWxmI2p1bWJmPWMycGEuYXNzZXJ0aW9ucy9jMnBhLmluZ3JlZGllbnQudjNkaGFzaFgg4R3T2yx84LqwpkS6+nw/DkXq5sFh1VM2hTrSmw13bgOkZmFjdGlvbngdY29tLmFudGhyb3BpYy5jbGF1ZGUucHJvdmlkZWRqcGFyYW1ldGVyc6F4H2NvbS5hbnRocm9waWMub3JpZ2luLWNvbmZpZGVuY2VndW5rbm93bmtkZXNjcmlwdGlvbnhmQ2xhdWRlIHByb3ZpZGVkIHRoaXMgZmlsZSBhdCB0aGUgcmVxdWVzdCBvZiBhIHVzZXIgYW5kIG1heSBoYXZlIGNyZWF0ZWQgb3IgbW9kaWZpZWQgdGhlIGZpbGUgY29udGVudHMubXNvZnR3YXJlQWdlbnShZG5hbWVmQ2xhdWRlcmFsbEFjdGlvbnNJbmNsdWRlZPUAAADIanVtYgAAAEBqdW1kY2JvcgARABCAAACqADibcRNjMnBhLmhhc2guZGF0YQAAAAAYYzJzaKN+ZDvNi5LHJHyFgP+FtKwAAACAY2JvcqVjYWxnZnNoYTI1NmNwYWRNAAAAAAAAAAAAAAAAAGRoYXNoWCCXEGrH++HLy4vm2J69qIgI6KQQ1XBZQ/jY82j3NPZAKWRuYW1lbmp1bWJmIG1hbmlmZXN0amV4Y2x1c2lvbnOBomVzdGFydBigZmxlbmd0aBkeBAAAAj5qdW1iAAAAJ2p1bWRjMmNsABEAEIAAAKoAOJtxA2MycGEuY2xhaW0udjIAAAACD2Nib3KlY2FsZ2ZzaGEyNTZpc2lnbmF0dXJleE1zZWxmI2p1bWJmPS9jMnBhL3VybjpjMnBhOmM4ZDkwODJmLTcwODktNDlkZC1iMTY1LTM4MWE1ZWFhNDIxMC9jMnBhLnNpZ25hdHVyZWppbnN0YW5jZUlEeCx4bXA6aWlkOmEwMjlmNGNhLTNjOTQtNDA5OS04NGEwLTkzZTMzYzk5YzYwN3JjcmVhdGVkX2Fzc2VydGlvbnODomN1cmx4LXNlbGYjanVtYmY9YzJwYS5hc3NlcnRpb25zL2MycGEuaW5ncmVkaWVudC52M2RoYXNoWCDhHdPbLHzgurCmRLr6fD8ORermwWHVUzaFOtKbDXduA6JjdXJseCpzZWxmI2p1bWJmPWMycGEuYXNzZXJ0aW9ucy9jMnBhLmFjdGlvbnMudjJkaGFzaFgg4HgWrZxp4pJG7GGNvlp1HHCvU/CfCeozlpgGwRVwuymiY3VybHgpc2VsZiNqdW1iZj1jMnBhLmFzc2VydGlvbnMvYzJwYS5oYXNoLmRhdGFkaGFzaFggEVt9WvfsM24vqE2E3w8b0+jdZyW1jIkmeSz8VNRK6wJ0Y2xhaW1fZ2VuZXJhdG9yX2luZm+jZG5hbWVvQW50aHJvcGljIEZpbGVzZ3ZlcnNpb25lMS4wLjBrc3BlY1ZlcnNpb25lMi40LjAAABA4anVtYgAAAChqdW1kYzJjcwARABCAAACqADibcQNjMnBhLnNpZ25hdHVyZQAAABAIY2JvctKEWQISogEmGCFZAgowggIGMIIBjaADAgECAhRA5aAK7sI50L64g/oGQgU9Z1UTADAKBggqhkjOPQQDAzBJMRcwFQYDVQQKEw5BbnRocm9waWMsIFBCQzEuMCwGA1UEAxMlQW50aHJvcGljIENvbnRlbnQgQ3JlZGVudGlhbHMgUm9vdCBDQTAeFw0yNjA4MDcxODQzNTZaFw0yODA4MDYxOTQzNTZaMEQxFzAVBgNVBAoTDkFudGhyb3BpYywgUEJDMSkwJwYDVQQDEyBBbnRocm9waWMgQ2xhdWRlIENvbnRlbnQgU2lnbmluZzBZMBMGByqGSM49AgEGCCqGSM49AwEHA0IABJh6CmvLUBgFFNU0vUKlOVtE6djd17L5SuwX0LemFisBM3dkd/3cyjxFA3Qo5S46fX0/ihY0VZ7mfb9KF703t5OjWDBWMA4GA1UdDwEB/wQEAwIHgDAVBgNVHSUEDjAMBgorBgEEAYPoXgIBMAwGA1UdEwEB/wQCMAAwHwYDVR0jBBgwFoAUzlHiBIFOZFsj+OPEz5o+nMHXXMIwCgYIKoZIzj0EAwMDZwAwZAIwMXMdFJ4BetLLVY7ORuE9noqbbAZOZn/aArXyTwFAZfKrPzxF2vPoJNf1+UCdg1XGAjBwX1zd9WGqYkqmL5SFqw1QySjr1zJfpJM9+1rdDwSPLMOPOjKuiXjoU/pUUeG9RwmhY3BhZFkNngAAAAAAAAAAAAAAAAAAAAAAAAAAAAAAAAAAAAAAAAAAAAAAAAAAAAAAAAAAAAAAAAAAAAAAAAAAAAAAAAAAAAAAAAAAAAAAAAAAAAAAAAAAAAAAAAAAAAAAAAAAAAAAAAAAAAAAAAAAAAAAAAAAAAAAAAAAAAAAAAAAAAAAAAAAAAAAAAAAAAAAAAAAAAAAAAAAAAAAAAAAAAAAAAAAAAAAAAAAAAAAAAAAAAAAAAAAAAAAAAAAAAAAAAAAAAAAAAAAAAAAAAAAAAAAAAAAAAAAAAAAAAAAAAAAAAAAAAAAAAAAAAAAAAAAAAAAAAAAAAAAAAAAAAAAAAAAAAAAAAAAAAAAAAAAAAAAAAAAAAAAAAAAAAAAAAAAAAAAAAAAAAAAAAAAAAAAAAAAAAAAAAAAAAAAAAAAAAAAAAAAAAAAAAAAAAAAAAAAAAAAAAAAAAAAAAAAAAAAAAAAAAAAAAAAAAAAAAAAAAAAAAAAAAAAAAAAAAAAAAAAAAAAAAAAAAAAAAAAAAAAAAAAAAAAAAAAAAAAAAAAAAAAAAAAAAAAAAAAAAAAAAAAAAAAAAAAAAAAAAAAAAAAAAAAAAAAAAAAAAAAAAAAAAAAAAAAAAAAAAAAAAAAAAAAAAAAAAAAAAAAAAAAAAAAAAAAAAAAAAAAAAAAAAAAAAAAAAAAAAAAAAAAAAAAAAAAAAAAAAAAAAAAAAAAAAAAAAAAAAAAAAAAAAAAAAAAAAAAAAAAAAAAAAAAAAAAAAAAAAAAAAAAAAAAAAAAAAAAAAAAAAAAAAAAAAAAAAAAAAAAAAAAAAAAAAAAAAAAAAAAAAAAAAAAAAAAAAAAAAAAAAAAAAAAAAAAAAAAAAAAAAAAAAAAAAAAAAAAAAAAAAAAAAAAAAAAAAAAAAAAAAAAAAAAAAAAAAAAAAAAAAAAAAAAAAAAAAAAAAAAAAAAAAAAAAAAAAAAAAAAAAAAAAAAAAAAAAAAAAAAAAAAAAAAAAAAAAAAAAAAAAAAAAAAAAAAAAAAAAAAAAAAAAAAAAAAAAAAAAAAAAAAAAAAAAAAAAAAAAAAAAAAAAAAAAAAAAAAAAAAAAAAAAAAAAAAAAAAAAAAAAAAAAAAAAAAAAAAAAAAAAAAAAAAAAAAAAAAAAAAAAAAAAAAAAAAAAAAAAAAAAAAAAAAAAAAAAAAAAAAAAAAAAAAAAAAAAAAAAAAAAAAAAAAAAAAAAAAAAAAAAAAAAAAAAAAAAAAAAAAAAAAAAAAAAAAAAAAAAAAAAAAAAAAAAAAAAAAAAAAAAAAAAAAAAAAAAAAAAAAAAAAAAAAAAAAAAAAAAAAAAAAAAAAAAAAAAAAAAAAAAAAAAAAAAAAAAAAAAAAAAAAAAAAAAAAAAAAAAAAAAAAAAAAAAAAAAAAAAAAAAAAAAAAAAAAAAAAAAAAAAAAAAAAAAAAAAAAAAAAAAAAAAAAAAAAAAAAAAAAAAAAAAAAAAAAAAAAAAAAAAAAAAAAAAAAAAAAAAAAAAAAAAAAAAAAAAAAAAAAAAAAAAAAAAAAAAAAAAAAAAAAAAAAAAAAAAAAAAAAAAAAAAAAAAAAAAAAAAAAAAAAAAAAAAAAAAAAAAAAAAAAAAAAAAAAAAAAAAAAAAAAAAAAAAAAAAAAAAAAAAAAAAAAAAAAAAAAAAAAAAAAAAAAAAAAAAAAAAAAAAAAAAAAAAAAAAAAAAAAAAAAAAAAAAAAAAAAAAAAAAAAAAAAAAAAAAAAAAAAAAAAAAAAAAAAAAAAAAAAAAAAAAAAAAAAAAAAAAAAAAAAAAAAAAAAAAAAAAAAAAAAAAAAAAAAAAAAAAAAAAAAAAAAAAAAAAAAAAAAAAAAAAAAAAAAAAAAAAAAAAAAAAAAAAAAAAAAAAAAAAAAAAAAAAAAAAAAAAAAAAAAAAAAAAAAAAAAAAAAAAAAAAAAAAAAAAAAAAAAAAAAAAAAAAAAAAAAAAAAAAAAAAAAAAAAAAAAAAAAAAAAAAAAAAAAAAAAAAAAAAAAAAAAAAAAAAAAAAAAAAAAAAAAAAAAAAAAAAAAAAAAAAAAAAAAAAAAAAAAAAAAAAAAAAAAAAAAAAAAAAAAAAAAAAAAAAAAAAAAAAAAAAAAAAAAAAAAAAAAAAAAAAAAAAAAAAAAAAAAAAAAAAAAAAAAAAAAAAAAAAAAAAAAAAAAAAAAAAAAAAAAAAAAAAAAAAAAAAAAAAAAAAAAAAAAAAAAAAAAAAAAAAAAAAAAAAAAAAAAAAAAAAAAAAAAAAAAAAAAAAAAAAAAAAAAAAAAAAAAAAAAAAAAAAAAAAAAAAAAAAAAAAAAAAAAAAAAAAAAAAAAAAAAAAAAAAAAAAAAAAAAAAAAAAAAAAAAAAAAAAAAAAAAAAAAAAAAAAAAAAAAAAAAAAAAAAAAAAAAAAAAAAAAAAAAAAAAAAAAAAAAAAAAAAAAAAAAAAAAAAAAAAAAAAAAAAAAAAAAAAAAAAAAAAAAAAAAAAAAAAAAAAAAAAAAAAAAAAAAAAAAAAAAAAAAAAAAAAAAAAAAAAAAAAAAAAAAAAAAAAAAAAAAAAAAAAAAAAAAAAAAAAAAAAAAAAAAAAAAAAAAAAAAAAAAAAAAAAAAAAAAAAAAAAAAAAAAAAAAAAAAAAAAAAAAAAAAAAAAAAAAAAAAAAAAAAAAAAAAAAAAAAAAAAAAAAAAAAAAAAAAAAAAAAAAAAAAAAAAAAAAAAAAAAAAAAAAAAAAAAAAAAAAAAAAAAAAAAAAAAAAAAAAAAAAAAAAAAAAAAAAAAAAAAAAAAAAAAAAAAAAAAAAAAAAAAAAAAAAAAAAAAAAAAAAAAAAAAAAAAAAAAAAAAAAAAAAAAAAAAAAAAAAAAAAAAAAAAAAAAAAAAAAAAAAAAAAAAAAAAAAAAAAAAAAAAAAAAAAAAAAAAAAAAAAAAAAAAAAAAAAAAAAAAAAAAAAAAAAAAAAAAAAAAAAAAAAAAAAAAAAAAAAAAAAAAAAAAAAAAAAAAAAAAAAAAAAAAAAAAAAAAAAAAAAAAAAAAAAAAAAAAAAAAAAAAAAAAAAAAAAAAAAAAAAAAAAAAAAAAAAAAAAAAAAAAAAAAAAAAAAAAAAAAAAAAAAAAAAAAAAAAAAAAAAAAAAAAAAAAAAAAAAAAAAAAAAAAAAAAAAAAAAAAAAAAAAAAAAAAAAAAAAAAAAAAAAAAAAAAAAAAAAAAAAAAAAAAAAAAAAAAAAAAAAAAAAAAAAAAAAAAAAAAAAAAAAAAAAAAAAAAAAAAAAAAAAAAAAAAAAAAAAAAAAAAAAAAAAAAAAAAAAAAAAAAAAAAAAAAAAAAAAAAAAAAAAAAAAAAAAAAAAAAAAAAAAAAAAAAAAAAAAAAAAAAAAAAAAAAAAAAAAAAAAAAAAAAAAAAAAAAAAAAAAAAAAAAAAAAAAAAAAAAAAAAAAAAAAAAAAAAAAAAAAAAAAAAAAAAAAAAAAAAAAAAAAAAAAAAAAAAAAAAAAAAAAAAAAAAAAAAAAAAAAAAAAAAAAAAAAAAAAAAAAAAAAAAAAAAAAAAAAAAAAAAAAAAAAAAAAAAAAAAAAAAAAAAAAAAAAAAAAAAAAAAAAAAAAAAAAAAAAAAAAAAAAAAAAAAAAAAAAAAAAAAAAAAAAAAAAAAAAAAAAAAAAAAAAAAAAAAAAAAAAAAAAAAAAAAAAAAAAAAAAAAAAAAAAAAAAAAAAAAAAAAAAAAAAAAAAAAAAAAAAAAAAAAAAAAAAAAAAAAAAAAAAAAAAAAAAAAAAAAAAAAAAAAAAAAAAAAAAAAAAAAAAAAAAAAAAAAAAAAAAAAAAAAAAAAAAAAAAAAAAAAAAAAAAAAAAAAAAAAAAAAAAAAAAAAAAAAAAAAAAAAAAAAAAAAAAAAAAAAAAAAAAAAAAAAAAAAAAAAAAAAAAAAAAAAAAAAAAAAAAAAAAAAAAAAAAAAAAAAAAAAAAAAAAAAAAAAAAAAAAAAAAAAAAAAAAAAAAAAAAAAAAAAAAAAAAAAAAAAAAAAAAAAAAAAAAAAAAAAAAAAAAAAAAAAAAAAAAAAAAAAAAAAAAAAAAAAAAAAAAAAAAAAAAAAAAAAAAAAAAAAAAAAAAAAAAAAAAAAAAAAAAAAAAAAAAAAAAAAAAAAAAAAAAAAAAAAAAAAAAAAAAAAAAAAAAAAAAAAAAAAAAAAAAAAAAAAAAAAAAAAAAAAAAAAAAAAAAAAAAAAAAAAAAAAAAAAAAAAAAAAAAAAAAAAAAAAAAAAAAAAAAAAAAAAAAAAAAAAAAAAAAAAAAAAAAAAAAAAAAAAAAAAAAAAAAAAAAAAAAAAAAAAAAAAAAAAAAAAAAAAAAAAAAAAAAAAAAAAAAAAAAAAAAAAAAAAAAAAAAAAAAAAAAAAAAAAAAAAAAAAAAAAAAAAAAAAAAAAAAAAAAAAAAAAAAAAAAAAAAAAAAAAAAAAAAAAAAAAAAAAAAAAAAAAAAAAAAAAAAAAAAAAAAAAAAAAAAAAAAAAAAAAAAAAAAAAAAAAAAAAAAAAAAAAAAAAAAAAAAAAAAAAAAAAAAAAAAAAAAAAAAAAAAAAAAAAAAAAAAAAAAAAAAAAAAAAAAAAAAAAAAAAAAAAAAAAAAAAAAAAAAAAAAAAAAAAAAAAAAAAAAAAAAAAAAAAAAAAAAAAAAAAAAAAAAAPZYQDhFKF8aW4BYeR5fo9b6voNpwPaCEqQk9g6pSewVx/1ITvP9IPPda65VlZP11MTthtLD0S96aLDs1UmmKTCFxBc=</c2pa:manifest></metadata><path d="M52.29 21.95C48.09 21.95 45.26 20.92 43.05 18.93C40.33 16.49 39.66 13.3 39.66 10.64C39.66 8.76 40.3 5.49 42.8 3C44.48 1.32 47.02 0 51.34 0C52.46 0 54.02 0.08 55.4 0.34C56.46 0.53 57.36 0.7 58.25 0.76C58.56 0.78 58.62 0.9 58.62 1.06C58.62 1.29 58.53 1.62 58.48 2.63C58.42 3.56 58.42 5.1 58.39 5.52C58.36 5.94 58.31 6.1 58.14 6.1C57.94 6.1 57.92 5.91 57.92 5.52C57.92 4.42 57.47 3.28 56.74 2.66C55.76 1.82 53.6 1.06 51.14 1.06C47.42 1.06 45.68 2.16 44.7 3.11C42.66 5.07 42.18 7.56 42.18 10.42C42.18 15.76 46.3 20.66 52.29 20.66C54.39 20.66 56.04 20.41 57.16 19.26C57.75 18.65 58.11 17.42 58.2 16.91C58.25 16.6 58.31 16.49 58.48 16.49C58.62 16.49 58.67 16.69 58.67 16.91C58.67 17.11 58.34 19.54 58.06 20.5C57.89 21.03 57.83 21.08 57.33 21.31C56.21 21.76 54.08 21.95 52.29 21.95ZM66.62 8.51V13.5C66.62 17.61 66.73 19.4 67.23 19.91C67.68 20.36 68.41 20.55 70.59 20.55C72.08 20.55 73.31 20.52 73.98 19.71C74.34 19.26 74.62 18.56 74.71 18.03C74.74 17.81 74.79 17.67 74.96 17.67C75.1 17.67 75.13 17.78 75.13 18.09C75.13 18.4 74.93 20.08 74.71 20.89C74.51 21.53 74.43 21.64 72.94 21.64C70.93 21.64 69.47 21.59 68.3 21.56C67.12 21.5 66.25 21.48 65.44 21.48C65.33 21.48 64.85 21.5 64.29 21.5C63.73 21.53 63.12 21.56 62.7 21.56C62.39 21.56 62.25 21.5 62.25 21.34C62.25 21.25 62.3 21.17 62.47 21.17C62.72 21.17 63.06 21.11 63.31 21.06C63.87 20.94 64.01 20.33 64.12 19.52C64.26 18.34 64.26 16.13 64.26 13.44V8.51C64.26 4.14 64.26 3.36 64.21 2.46C64.15 1.51 63.93 1.06 63 0.87C62.78 0.81 62.3 0.78 62.05 0.78C61.94 0.78 61.83 0.73 61.83 0.62C61.83 0.45 61.97 0.39 62.28 0.39C63.54 0.39 65.3 0.48 65.44 0.48C65.58 0.48 67.62 0.39 68.46 0.39C68.77 0.39 68.91 0.45 68.91 0.62C68.91 0.73 68.8 0.78 68.69 0.78C68.49 0.78 68.1 0.81 67.76 0.87C66.95 1.01 66.73 1.48 66.67 2.46C66.62 3.36 66.62 4.14 66.62 8.51ZM82.07 8.51V13.44C82.07 16.13 82.07 18.34 82.21 19.52C82.29 20.33 82.46 20.94 83.3 21.06C83.69 21.11 84.31 21.17 84.56 21.17C84.73 21.17 84.78 21.25 84.78 21.34C84.78 21.48 84.64 21.56 84.33 21.56C82.79 21.56 81.03 21.48 80.89 21.48C80.75 21.48 78.99 21.56 78.15 21.56C77.84 21.56 77.7 21.5 77.7 21.34C77.7 21.25 77.75 21.17 77.92 21.17C78.17 21.17 78.51 21.11 78.76 21.06C79.32 20.94 79.46 20.33 79.57 19.52C79.71 18.34 79.71 16.13 79.71 13.44V8.51C79.71 4.14 79.71 3.36 79.66 2.46C79.6 1.51 79.32 1.04 78.71 0.9C78.4 0.81 78.03 0.78 77.84 0.78C77.73 0.78 77.61 0.73 77.61 0.62C77.61 0.45 77.75 0.39 78.06 0.39C78.99 0.39 80.75 0.48 80.89 0.48C81.03 0.48 82.79 0.39 83.63 0.39C83.94 0.39 84.08 0.45 84.08 0.62C84.08 0.73 83.97 0.78 83.86 0.78C83.66 0.78 83.49 0.81 83.16 0.87C82.4 1.01 82.18 1.48 82.12 2.46C82.07 3.36 82.07 4.14 82.07 8.51ZM91.32 4.34L91.68 17.75C91.74 20.05 92.02 20.78 92.77 21C93.31 21.14 93.92 21.17 94.17 21.17C94.31 21.17 94.4 21.22 94.4 21.34C94.4 21.5 94.23 21.56 93.89 21.56C92.3 21.56 91.18 21.48 90.93 21.48C90.67 21.48 89.5 21.56 88.24 21.56C87.96 21.56 87.79 21.53 87.79 21.34C87.79 21.22 87.87 21.17 88.01 21.17C88.24 21.17 88.74 21.14 89.16 21C89.86 20.8 90 19.99 90 17.44L90.03 1.4C90.03 0.31 90.11 0 90.34 0C90.56 0 91.04 0.62 91.32 0.9C91.74 1.37 95.91 5.88 100.22 10.5C102.99 13.47 106.05 16.88 106.94 17.81L106.63 3.58C106.61 1.76 106.41 1.15 105.54 0.92C105.04 0.81 104.39 0.78 104.17 0.78C103.97 0.78 103.95 0.7 103.95 0.59C103.95 0.42 104.17 0.39 104.51 0.39C105.77 0.39 107.11 0.48 107.42 0.48C107.73 0.48 108.65 0.39 109.8 0.39C110.11 0.39 110.3 0.42 110.3 0.59C110.3 0.7 110.19 0.78 109.99 0.78C109.85 0.78 109.66 0.78 109.32 0.87C108.4 1.06 108.29 1.68 108.29 3.36L108.23 19.77C108.23 21.62 108.17 21.76 107.98 21.76C107.75 21.76 107.42 21.45 105.93 19.96C105.63 19.68 101.59 15.57 98.63 12.38C95.38 8.88 92.21 5.35 91.32 4.34ZM118.68 8.51V13.44C118.68 16.13 118.68 18.34 118.82 19.52C118.91 20.33 119.07 20.94 119.91 21.06C120.31 21.11 120.92 21.17 121.17 21.17C121.34 21.17 121.4 21.25 121.4 21.34C121.4 21.48 121.26 21.56 120.95 21.56C119.41 21.56 117.64 21.48 117.5 21.48C117.36 21.48 115.6 21.56 114.76 21.56C114.45 21.56 114.31 21.5 114.31 21.34C114.31 21.25 114.37 21.17 114.54 21.17C114.79 21.17 115.12 21.11 115.38 21.06C115.94 20.94 116.08 20.33 116.19 19.52C116.33 18.34 116.33 16.13 116.33 13.44V8.51C116.33 4.14 116.33 3.36 116.27 2.46C116.22 1.51 115.94 1.04 115.32 0.9C115.01 0.81 114.65 0.78 114.45 0.78C114.34 0.78 114.23 0.73 114.23 0.62C114.23 0.45 114.37 0.39 114.68 0.39C115.6 0.39 117.36 0.48 117.5 0.48C117.64 0.48 119.41 0.39 120.25 0.39C120.56 0.39 120.7 0.45 120.7 0.62C120.7 0.73 120.58 0.78 120.47 0.78C120.28 0.78 120.11 0.81 119.77 0.87C119.02 1.01 118.79 1.48 118.74 2.46C118.68 3.36 118.68 4.14 118.68 8.51ZM136.57 21.95C132.37 21.95 129.54 20.92 127.33 18.93C124.61 16.49 123.94 13.3 123.94 10.64C123.94 8.76 124.58 5.49 127.08 3C128.75 1.32 131.3 0 135.62 0C136.74 0 138.3 0.08 139.68 0.34C140.74 0.53 141.63 0.7 142.53 0.76C142.84 0.78 142.9 0.9 142.9 1.06C142.9 1.29 142.81 1.62 142.75 2.63C142.7 3.56 142.7 5.1 142.67 5.52C142.64 5.94 142.59 6.1 142.42 6.1C142.22 6.1 142.19 5.91 142.19 5.52C142.19 4.42 141.75 3.28 141.02 2.66C140.04 1.82 137.88 1.06 135.42 1.06C131.69 1.06 129.96 2.16 128.98 3.11C126.94 5.07 126.46 7.56 126.46 10.42C126.46 15.76 130.57 20.66 136.57 20.66C138.67 20.66 140.32 20.41 141.44 19.26C142.03 18.65 142.39 17.42 142.47 16.91C142.53 16.6 142.59 16.49 142.75 16.49C142.9 16.49 142.95 16.69 142.95 16.91C142.95 17.11 142.62 19.54 142.34 20.5C142.17 21.03 142.11 21.08 141.61 21.31C140.49 21.76 138.36 21.95 136.57 21.95ZM146.22 18.48L152.57 1.09C152.91 0.17 153.02 0 153.19 0C153.36 0 153.47 0.14 153.81 1.01C154.23 2.07 158.62 13.64 160.33 17.89C161.34 20.38 162.15 20.83 162.74 21C163.16 21.14 163.58 21.17 163.86 21.17C164.03 21.17 164.14 21.2 164.14 21.34C164.14 21.5 163.89 21.56 163.58 21.56C163.16 21.56 161.11 21.56 159.18 21.5C158.65 21.48 158.34 21.48 158.34 21.31C158.34 21.2 158.43 21.14 158.54 21.11C158.71 21.06 158.87 20.8 158.71 20.36L156.1 13.47C156.05 13.36 155.99 13.3 155.85 13.3H149.83C149.69 13.3 149.61 13.38 149.55 13.52L147.87 18.48C147.62 19.18 147.48 19.85 147.48 20.36C147.48 20.92 148.07 21.17 148.54 21.17H148.82C149.02 21.17 149.1 21.22 149.1 21.34C149.1 21.5 148.93 21.56 148.68 21.56C148.01 21.56 146.81 21.48 146.5 21.48C146.19 21.48 144.65 21.56 143.33 21.56C142.97 21.56 142.8 21.5 142.8 21.34C142.8 21.22 142.91 21.17 143.05 21.17C143.25 21.17 143.64 21.14 143.87 21.11C145.15 20.94 145.71 19.88 146.22 18.48ZM150.14 12.29H155.49C155.63 12.29 155.63 12.21 155.6 12.1L152.94 4.54C152.8 4.12 152.66 4.12 152.52 4.54L150.05 12.1C150 12.24 150.05 12.29 150.14 12.29ZM169.38 8.51V13.5C169.38 17.61 169.49 19.4 170 19.91C170.44 20.36 171.17 20.55 173.36 20.55C174.84 20.55 176.07 20.52 176.74 19.71C177.11 19.26 177.39 18.56 177.47 18.03C177.5 17.81 177.56 17.67 177.72 17.67C177.86 17.67 177.89 17.78 177.89 18.09C177.89 18.4 177.7 20.08 177.47 20.89C177.28 21.53 177.19 21.64 175.71 21.64C173.69 21.64 172.24 21.59 171.06 21.56C169.88 21.5 169.02 21.48 168.2 21.48C168.09 21.48 167.62 21.5 167.06 21.5C166.5 21.53 165.88 21.56 165.46 21.56C165.15 21.56 165.01 21.5 165.01 21.34C165.01 21.25 165.07 21.17 165.24 21.17C165.49 21.17 165.82 21.11 166.08 21.06C166.64 20.94 166.78 20.33 166.89 19.52C167.03 18.34 167.03 16.13 167.03 13.44V8.51C167.03 4.14 167.03 3.36 166.97 2.46C166.92 1.51 166.69 1.06 165.77 0.87C165.54 0.81 165.07 0.78 164.82 0.78C164.7 0.78 164.59 0.73 164.59 0.62C164.59 0.45 164.73 0.39 165.04 0.39C166.3 0.39 168.06 0.48 168.2 0.48C168.34 0.48 170.39 0.39 171.23 0.39C171.54 0.39 171.68 0.45 171.68 0.62C171.68 0.73 171.56 0.78 171.45 0.78C171.26 0.78 170.86 0.81 170.53 0.87C169.72 1.01 169.49 1.48 169.44 2.46C169.38 3.36 169.38 4.14 169.38 8.51ZM196.43 1.6V13.44C196.43 16.13 196.43 18.34 196.57 19.52C196.65 20.33 196.82 20.94 197.66 21.06C198.05 21.11 198.67 21.17 198.92 21.17C199.09 21.17 199.14 21.25 199.14 21.34C199.14 21.48 199 21.56 198.7 21.56C197.16 21.56 195.39 21.48 195.25 21.48C195.11 21.48 193.35 21.56 192.51 21.56C192.2 21.56 192.06 21.5 192.06 21.34C192.06 21.25 192.12 21.17 192.28 21.17C192.54 21.17 192.87 21.11 193.12 21.06C193.68 20.94 193.82 20.33 193.94 19.52C194.08 18.34 194.08 16.13 194.08 13.44V1.6L189.93 1.65C188.2 1.68 187.52 1.88 187.08 2.55C186.77 3.02 186.68 3.22 186.6 3.42C186.52 3.64 186.43 3.7 186.32 3.7C186.24 3.7 186.18 3.61 186.18 3.44C186.18 3.16 186.74 0.76 186.8 0.53C186.85 0.36 186.96 0 187.08 0C187.27 0 187.55 0.28 188.31 0.34C189.12 0.42 190.18 0.48 190.52 0.48H201.02C201.92 0.48 202.56 0.42 203.01 0.34C203.43 0.28 203.68 0.2 203.79 0.2C203.93 0.2 203.93 0.36 203.93 0.53C203.93 1.37 203.85 3.3 203.85 3.61C203.85 3.86 203.76 3.98 203.65 3.98C203.51 3.98 203.46 3.89 203.43 3.5L203.4 3.19C203.32 2.35 202.64 1.71 199.96 1.65L196.43 1.6ZM208.7 13.44V8.51C208.7 4.14 208.7 3.36 208.65 2.46C208.59 1.51 208.37 1.06 207.44 0.87C207.22 0.81 206.74 0.78 206.49 0.78C206.38 0.78 206.27 0.73 206.27 0.62C206.27 0.45 206.41 0.39 206.72 0.39C207.97 0.39 209.74 0.48 209.88 0.48C210.19 0.48 212.31 0.39 213.18 0.39C214.95 0.39 216.82 0.56 218.31 1.62C219.01 2.13 220.24 3.5 220.24 5.43C220.24 7.5 219.37 9.58 216.85 11.9C219.15 14.84 221.05 17.33 222.68 19.07C224.19 20.66 225.39 20.97 226.09 21.08C226.62 21.17 227.01 21.17 227.18 21.17C227.32 21.17 227.44 21.25 227.44 21.34C227.44 21.5 227.27 21.56 226.76 21.56H224.78C223.21 21.56 222.51 21.42 221.78 21.03C220.57 20.38 219.59 19.01 218 16.91C216.82 15.37 215.51 13.5 214.95 12.77C214.84 12.66 214.75 12.6 214.58 12.6L211.14 12.54C211 12.54 210.94 12.63 210.94 12.77V13.44C210.94 16.13 210.94 18.34 211.08 19.52C211.17 20.33 211.34 20.94 212.18 21.06C212.57 21.11 213.18 21.17 213.44 21.17C213.6 21.17 213.66 21.25 213.66 21.34C213.66 21.48 213.52 21.56 213.21 21.56C211.67 21.56 209.91 21.48 209.77 21.48C209.74 21.48 207.97 21.56 207.13 21.56C206.83 21.56 206.69 21.5 206.69 21.34C206.69 21.25 206.74 21.17 206.91 21.17C207.16 21.17 207.5 21.11 207.75 21.06C208.31 20.94 208.45 20.33 208.56 19.52C208.7 18.34 208.7 16.13 208.7 13.44ZM210.94 1.79V10.95C210.94 11.09 211 11.2 211.14 11.28C211.56 11.54 212.85 11.73 214.08 11.73C214.75 11.73 215.53 11.65 216.18 11.2C217.16 10.53 217.89 9.02 217.89 6.89C217.89 3.39 216.04 1.29 213.04 1.29C212.2 1.29 211.45 1.37 211.17 1.46C211.03 1.51 210.94 1.62 210.94 1.79ZM231.04 8.51V13.44C231.04 16.13 231.04 18.34 231.18 19.52C231.27 20.33 231.44 20.94 232.28 21.06C232.67 21.11 233.28 21.17 233.54 21.17C233.7 21.17 233.76 21.25 233.76 21.34C233.76 21.48 233.62 21.56 233.31 21.56C231.77 21.56 230.01 21.48 229.87 21.48C229.73 21.48 227.96 21.56 227.12 21.56C226.82 21.56 226.68 21.5 226.68 21.34C226.68 21.25 226.73 21.17 226.9 21.17C227.15 21.17 227.49 21.11 227.74 21.06C228.3 20.94 228.44 20.33 228.55 19.52C228.69 18.34 228.69 16.13 228.69 13.44V8.51C228.69 4.14 228.69 3.36 228.64 2.46C228.58 1.51 228.3 1.04 227.68 0.9C227.38 0.81 227.01 0.78 226.82 0.78C226.7 0.78 226.59 0.73 226.59 0.62C226.59 0.45 226.73 0.39 227.04 0.39C227.96 0.39 229.73 0.48 229.87 0.48C230.01 0.48 231.77 0.39 232.61 0.39C232.92 0.39 233.06 0.45 233.06 0.62C233.06 0.73 232.95 0.78 232.84 0.78C232.64 0.78 232.47 0.81 232.14 0.87C231.38 1.01 231.16 1.48 231.1 2.46C231.04 3.36 231.04 4.14 231.04 8.51ZM237.58 18.48L243.94 1.09C244.27 0.17 244.38 0 244.55 0C244.72 0 244.83 0.14 245.17 1.01C245.59 2.07 249.98 13.64 251.69 17.89C252.7 20.38 253.51 20.83 254.1 21C254.52 21.14 254.94 21.17 255.22 21.17C255.39 21.17 255.5 21.2 255.5 21.34C255.5 21.5 255.25 21.56 254.94 21.56C254.52 21.56 252.48 21.56 250.54 21.5C250.01 21.48 249.7 21.48 249.7 21.31C249.7 21.2 249.79 21.14 249.9 21.11C250.07 21.06 250.24 20.8 250.07 20.36L247.46 13.47C247.41 13.36 247.35 13.3 247.21 13.3H241.19C241.05 13.3 240.97 13.38 240.91 13.52L239.23 18.48C238.98 19.18 238.84 19.85 238.84 20.36C238.84 20.92 239.43 21.17 239.9 21.17H240.18C240.38 21.17 240.46 21.22 240.46 21.34C240.46 21.5 240.3 21.56 240.04 21.56C239.37 21.56 238.17 21.48 237.86 21.48C237.55 21.48 236.01 21.56 234.7 21.56C234.33 21.56 234.16 21.5 234.16 21.34C234.16 21.22 234.28 21.17 234.42 21.17C234.61 21.17 235 21.14 235.23 21.11C236.52 20.94 237.08 19.88 237.58 18.48ZM241.5 12.29H246.85C246.99 12.29 246.99 12.21 246.96 12.1L244.3 4.54C244.16 4.12 244.02 4.12 243.88 4.54L241.42 12.1C241.36 12.24 241.42 12.29 241.5 12.29ZM260.74 8.51V13.5C260.74 17.61 260.85 19.4 261.36 19.91C261.81 20.36 262.53 20.55 264.72 20.55C266.2 20.55 267.43 20.52 268.11 19.71C268.47 19.26 268.75 18.56 268.83 18.03C268.86 17.81 268.92 17.67 269.09 17.67C269.23 17.67 269.25 17.78 269.25 18.09C269.25 18.4 269.06 20.08 268.83 20.89C268.64 21.53 268.55 21.64 267.07 21.64C265.05 21.64 263.6 21.59 262.42 21.56C261.25 21.5 260.38 21.48 259.57 21.48C259.45 21.48 258.98 21.5 258.42 21.5C257.86 21.53 257.24 21.56 256.82 21.56C256.51 21.56 256.37 21.5 256.37 21.34C256.37 21.25 256.43 21.17 256.6 21.17C256.85 21.17 257.19 21.11 257.44 21.06C258 20.94 258.14 20.33 258.25 19.52C258.39 18.34 258.39 16.13 258.39 13.44V8.51C258.39 4.14 258.39 3.36 258.33 2.46C258.28 1.51 258.05 1.06 257.13 0.87C256.91 0.81 256.43 0.78 256.18 0.78C256.07 0.78 255.95 0.73 255.95 0.62C255.95 0.45 256.09 0.39 256.4 0.39C257.66 0.39 259.43 0.48 259.57 0.48C259.71 0.48 261.75 0.39 262.59 0.39C262.9 0.39 263.04 0.45 263.04 0.62C263.04 0.73 262.93 0.78 262.81 0.78C262.62 0.78 262.23 0.81 261.89 0.87C261.08 1.01 260.85 1.48 260.8 2.46C260.74 3.36 260.74 4.14 260.74 8.51ZM2.44 49.44V44.51C2.44 40.14 2.44 39.36 2.38 38.46C2.32 37.51 2.1 37.06 1.18 36.87C0.95 36.81 0.48 36.78 0.22 36.78C0.11 36.78 0 36.73 0 36.62C0 36.45 0.14 36.39 0.45 36.39C1.71 36.39 3.47 36.48 3.61 36.48C3.92 36.48 6.05 36.39 6.92 36.39C8.68 36.39 10.56 36.56 12.04 37.62C12.74 38.13 13.97 39.5 13.97 41.43C13.97 43.5 13.1 45.58 10.58 47.9C12.88 50.84 14.78 53.33 16.41 55.07C17.92 56.66 19.12 56.97 19.82 57.08C20.36 57.17 20.75 57.17 20.92 57.17C21.06 57.17 21.17 57.25 21.17 57.34C21.17 57.5 21 57.56 20.5 57.56H18.51C16.94 57.56 16.24 57.42 15.51 57.03C14.31 56.38 13.33 55.01 11.73 52.91C10.56 51.37 9.24 49.5 8.68 48.77C8.57 48.66 8.48 48.6 8.32 48.6L4.87 48.54C4.73 48.54 4.68 48.63 4.68 48.77V49.44C4.68 52.13 4.68 54.34 4.82 55.52C4.9 56.33 5.07 56.94 5.91 57.06C6.3 57.11 6.92 57.17 7.17 57.17C7.34 57.17 7.39 57.25 7.39 57.34C7.39 57.48 7.25 57.56 6.94 57.56C5.4 57.56 3.64 57.48 3.5 57.48C3.47 57.48 1.71 57.56 0.87 57.56C0.56 57.56 0.42 57.5 0.42 57.34C0.42 57.25 0.48 57.17 0.64 57.17C0.9 57.17 1.23 57.11 1.48 57.06C2.04 56.94 2.18 56.33 2.3 55.52C2.44 54.34 2.44 52.13 2.44 49.44ZM4.68 37.79V46.95C4.68 47.09 4.73 47.2 4.87 47.28C5.29 47.54 6.58 47.73 7.81 47.73C8.48 47.73 9.27 47.65 9.91 47.2C10.89 46.53 11.62 45.02 11.62 42.89C11.62 39.39 9.77 37.29 6.78 37.29C5.94 37.29 5.18 37.37 4.9 37.46C4.76 37.51 4.68 37.62 4.68 37.79ZM22.43 49.44V44.51C22.43 40.14 22.43 39.36 22.37 38.46C22.31 37.51 22.09 37.06 21.17 36.87C20.94 36.81 20.47 36.78 20.21 36.78C20.1 36.78 19.99 36.73 19.99 36.62C19.99 36.45 20.13 36.39 20.44 36.39C21.08 36.39 21.84 36.39 22.45 36.42L23.6 36.48C23.8 36.48 29.37 36.48 30.01 36.45C30.55 36.42 30.99 36.36 31.22 36.31C31.36 36.28 31.47 36.17 31.61 36.17C31.69 36.17 31.72 36.28 31.72 36.42C31.72 36.62 31.58 36.95 31.5 37.74C31.47 38.02 31.41 39.25 31.36 39.58C31.33 39.72 31.27 39.89 31.16 39.89C30.99 39.89 30.94 39.75 30.94 39.53C30.94 39.33 30.91 38.86 30.77 38.52C30.57 38.07 30.29 37.74 28.78 37.57C28.31 37.51 25.25 37.48 24.95 37.48C24.83 37.48 24.78 37.57 24.78 37.76V45.49C24.78 45.69 24.81 45.77 24.95 45.77C25.31 45.77 28.75 45.77 29.4 45.72C30.07 45.66 30.46 45.6 30.71 45.32C30.91 45.1 31.02 44.96 31.13 44.96C31.22 44.96 31.27 45.02 31.27 45.18C31.27 45.35 31.13 45.83 31.05 46.75C30.99 47.31 30.94 48.35 30.94 48.54C30.94 48.77 30.94 49.08 30.74 49.08C30.6 49.08 30.55 48.96 30.55 48.82C30.55 48.54 30.55 48.26 30.43 47.9C30.32 47.51 30.07 47.03 28.98 46.92C28.22 46.84 25.45 46.78 24.97 46.78C24.83 46.78 24.78 46.86 24.78 46.98V49.44C24.78 50.39 24.75 53.64 24.78 54.23C24.86 56.16 25.28 56.52 28.03 56.52C28.75 56.52 29.99 56.52 30.71 56.22C31.44 55.91 31.78 55.35 31.97 54.2C32.03 53.89 32.09 53.78 32.23 53.78C32.39 53.78 32.39 54 32.39 54.2C32.39 54.42 32.17 56.33 32.03 56.92C31.83 57.64 31.61 57.64 30.52 57.64C28.42 57.64 26.88 57.59 25.79 57.56C24.69 57.5 24.02 57.48 23.6 57.48C23.55 57.48 23.07 57.48 22.48 57.5C21.92 57.5 21.28 57.56 20.86 57.56C20.55 57.56 20.41 57.5 20.41 57.34C20.41 57.25 20.47 57.17 20.63 57.17C20.89 57.17 21.22 57.11 21.47 57.06C22.03 56.94 22.17 56.33 22.29 55.52C22.43 54.34 22.43 52.13 22.43 49.44ZM51.7 55.18V50.42C51.7 48.15 51.56 47.84 50.44 47.54C50.21 47.48 49.74 47.45 49.48 47.45C49.37 47.45 49.26 47.4 49.26 47.28C49.26 47.12 49.4 47.06 49.71 47.06C50.97 47.06 52.73 47.14 52.87 47.14C53.01 47.14 54.78 47.06 55.62 47.06C55.92 47.06 56.06 47.12 56.06 47.28C56.06 47.4 55.95 47.45 55.84 47.45C55.64 47.45 55.48 47.48 55.14 47.54C54.38 47.68 54.16 48.15 54.1 49.13C54.05 50.03 54.05 50.87 54.05 52.04V55.18C54.05 56.44 54.02 56.5 53.68 56.69C51.89 57.64 49.37 57.95 47.75 57.95C45.62 57.95 41.64 57.67 38.54 54.96C36.83 53.47 35.2 50.48 35.2 46.98C35.2 42.5 37.39 39.33 39.88 37.76C42.4 36.2 45.17 36 47.33 36C49.09 36 51.08 36.36 51.61 36.48C52.2 36.62 53.18 36.73 53.88 36.76C54.16 36.78 54.22 36.9 54.22 37.01C54.22 37.4 54.02 38.18 54.02 40.98C54.02 41.43 53.96 41.57 53.77 41.57C53.63 41.57 53.6 41.4 53.57 41.15C53.54 40.76 53.4 39.98 52.98 39.3C52.28 38.24 50.02 37.04 46.4 37.04C44.64 37.04 42.54 37.2 40.41 38.88C38.79 40.17 37.64 42.72 37.64 46C37.64 49.94 39.63 52.8 40.61 53.75C42.82 55.91 45.37 56.75 47.94 56.75C48.95 56.75 50.41 56.58 51.14 56.16C51.5 55.96 51.7 55.66 51.7 55.18ZM59.8 48.6V44.51C59.8 40.14 59.8 39.36 59.74 38.46C59.68 37.51 59.46 37.06 58.54 36.87C58.31 36.81 57.84 36.78 57.58 36.78C57.47 36.78 57.36 36.73 57.36 36.62C57.36 36.45 57.5 36.39 57.81 36.39C59.07 36.39 60.78 36.48 61.03 36.48C61.28 36.48 62.96 36.39 63.8 36.39C64.11 36.39 64.25 36.45 64.25 36.62C64.25 36.73 64.14 36.78 64.02 36.78C63.83 36.78 63.66 36.81 63.32 36.87C62.57 36.98 62.34 37.48 62.29 38.46C62.23 39.36 62.23 40.14 62.23 44.51V48.43C62.23 52.46 63.13 54.2 64.33 55.35C65.7 56.64 66.96 56.89 68.56 56.89C70.27 56.89 71.95 56.08 72.96 54.87C74.24 53.28 74.58 50.9 74.58 48.01V44.51C74.58 40.14 74.58 39.36 74.52 38.46C74.47 37.51 74.24 37.06 73.32 36.87C73.1 36.81 72.62 36.78 72.37 36.78C72.26 36.78 72.14 36.73 72.14 36.62C72.14 36.45 72.28 36.39 72.59 36.39C73.85 36.39 75.39 36.48 75.56 36.48C75.76 36.48 77.07 36.39 77.91 36.39C78.22 36.39 78.36 36.45 78.36 36.62C78.36 36.73 78.25 36.78 78.14 36.78C77.94 36.78 77.77 36.81 77.44 36.87C76.68 37.04 76.46 37.48 76.4 38.46C76.34 39.36 76.34 40.14 76.34 44.51V47.51C76.34 50.53 76.01 53.89 73.77 55.88C71.75 57.67 69.65 57.95 68 57.95C67.05 57.95 64.22 57.84 62.23 55.96C60.86 54.65 59.8 52.69 59.8 48.6ZM85.89 44.51V49.5C85.89 53.61 86.01 55.4 86.51 55.91C86.96 56.36 87.69 56.55 89.87 56.55C91.35 56.55 92.59 56.52 93.26 55.71C93.62 55.26 93.9 54.56 93.99 54.03C94.01 53.81 94.07 53.67 94.24 53.67C94.38 53.67 94.41 53.78 94.41 54.09C94.41 54.4 94.21 56.08 93.99 56.89C93.79 57.53 93.71 57.64 92.22 57.64C90.21 57.64 88.75 57.59 87.57 57.56C86.4 57.5 85.53 57.48 84.72 57.48C84.61 57.48 84.13 57.5 83.57 57.5C83.01 57.53 82.39 57.56 81.97 57.56C81.67 57.56 81.53 57.5 81.53 57.34C81.53 57.25 81.58 57.17 81.75 57.17C82 57.17 82.34 57.11 82.59 57.06C83.15 56.94 83.29 56.33 83.4 55.52C83.54 54.34 83.54 52.13 83.54 49.44V44.51C83.54 40.14 83.54 39.36 83.49 38.46C83.43 37.51 83.21 37.06 82.28 36.87C82.06 36.81 81.58 36.78 81.33 36.78C81.22 36.78 81.11 36.73 81.11 36.62C81.11 36.45 81.25 36.39 81.55 36.39C82.81 36.39 84.58 36.48 84.72 36.48C84.86 36.48 86.9 36.39 87.74 36.39C88.05 36.39 88.19 36.45 88.19 36.62C88.19 36.73 88.08 36.78 87.97 36.78C87.77 36.78 87.38 36.81 87.04 36.87C86.23 37.01 86.01 37.48 85.95 38.46C85.89 39.36 85.89 40.14 85.89 44.51ZM96.94 54.48L103.3 37.09C103.63 36.17 103.75 36 103.91 36C104.08 36 104.19 36.14 104.53 37.01C104.95 38.07 109.35 49.64 111.05 53.89C112.06 56.38 112.87 56.83 113.46 57C113.88 57.14 114.3 57.17 114.58 57.17C114.75 57.17 114.86 57.2 114.86 57.34C114.86 57.5 114.61 57.56 114.3 57.56C113.88 57.56 111.84 57.56 109.91 57.5C109.37 57.48 109.07 57.48 109.07 57.31C109.07 57.2 109.15 57.14 109.26 57.11C109.43 57.06 109.6 56.8 109.43 56.36L106.83 49.47C106.77 49.36 106.71 49.3 106.57 49.3H100.55C100.41 49.3 100.33 49.38 100.27 49.52L98.59 54.48C98.34 55.18 98.2 55.85 98.2 56.36C98.2 56.92 98.79 57.17 99.27 57.17H99.55C99.74 57.17 99.83 57.22 99.83 57.34C99.83 57.5 99.66 57.56 99.41 57.56C98.73 57.56 97.53 57.48 97.22 57.48C96.91 57.48 95.37 57.56 94.06 57.56C93.69 57.56 93.53 57.5 93.53 57.34C93.53 57.22 93.64 57.17 93.78 57.17C93.97 57.17 94.37 57.14 94.59 57.11C95.88 56.94 96.44 55.88 96.94 54.48ZM100.86 48.29H106.21C106.35 48.29 106.35 48.21 106.32 48.1L103.66 40.54C103.52 40.12 103.38 40.12 103.24 40.54L100.78 48.1C100.72 48.24 100.78 48.29 100.86 48.29ZM121.75 37.6V49.44C121.75 52.13 121.75 54.34 121.89 55.52C121.97 56.33 122.14 56.94 122.98 57.06C123.37 57.11 123.99 57.17 124.24 57.17C124.41 57.17 124.46 57.25 124.46 57.34C124.46 57.48 124.32 57.56 124.01 57.56C122.47 57.56 120.71 57.48 120.57 57.48C120.43 57.48 118.67 57.56 117.83 57.56C117.52 57.56 117.38 57.5 117.38 57.34C117.38 57.25 117.43 57.17 117.6 57.17C117.85 57.17 118.19 57.11 118.44 57.06C119 56.94 119.14 56.33 119.25 55.52C119.39 54.34 119.39 52.13 119.39 49.44V37.6L115.25 37.65C113.51 37.68 112.84 37.88 112.39 38.55C112.09 39.02 112 39.22 111.92 39.42C111.83 39.64 111.75 39.7 111.64 39.7C111.55 39.7 111.5 39.61 111.5 39.44C111.5 39.16 112.06 36.76 112.11 36.53C112.17 36.36 112.28 36 112.39 36C112.59 36 112.87 36.28 113.63 36.34C114.44 36.42 115.5 36.48 115.84 36.48H126.34C127.23 36.48 127.88 36.42 128.33 36.34C128.75 36.28 129 36.2 129.11 36.2C129.25 36.2 129.25 36.36 129.25 36.53C129.25 37.37 129.17 39.3 129.17 39.61C129.17 39.86 129.08 39.98 128.97 39.98C128.83 39.98 128.77 39.89 128.75 39.5L128.72 39.19C128.63 38.35 127.96 37.71 125.27 37.65L121.75 37.6ZM129.98 46.95C129.98 42.41 133.29 36 141.01 36C147.31 36 152.02 39.98 152.02 46.5C152.02 52.77 147.59 57.95 140.85 57.95C133.17 57.95 129.98 51.99 129.98 46.95ZM132.64 46.16C132.64 52.69 136.56 56.89 141.6 56.89C144.12 56.89 149.33 55.43 149.33 47.28C149.33 40.56 145.24 36.95 140.82 36.95C136.14 36.95 132.64 40.03 132.64 46.16ZM156.83 49.44V44.51C156.83 40.14 156.83 39.36 156.77 38.46C156.72 37.51 156.49 37.06 155.57 36.87C155.34 36.81 154.87 36.78 154.62 36.78C154.5 36.78 154.39 36.73 154.39 36.62C154.39 36.45 154.53 36.39 154.84 36.39C156.1 36.39 157.86 36.48 158 36.48C158.31 36.48 160.44 36.39 161.31 36.39C163.07 36.39 164.95 36.56 166.43 37.62C167.13 38.13 168.36 39.5 168.36 41.43C168.36 43.5 167.5 45.58 164.98 47.9C167.27 50.84 169.18 53.33 170.8 55.07C172.31 56.66 173.52 56.97 174.22 57.08C174.75 57.17 175.14 57.17 175.31 57.17C175.45 57.17 175.56 57.25 175.56 57.34C175.56 57.5 175.39 57.56 174.89 57.56H172.9C171.33 57.56 170.63 57.42 169.9 57.03C168.7 56.38 167.72 55.01 166.12 52.91C164.95 51.37 163.63 49.5 163.07 48.77C162.96 48.66 162.88 48.6 162.71 48.6L159.26 48.54C159.12 48.54 159.07 48.63 159.07 48.77V49.44C159.07 52.13 159.07 54.34 159.21 55.52C159.29 56.33 159.46 56.94 160.3 57.06C160.69 57.11 161.31 57.17 161.56 57.17C161.73 57.17 161.78 57.25 161.78 57.34C161.78 57.48 161.64 57.56 161.34 57.56C159.8 57.56 158.03 57.48 157.89 57.48C157.86 57.48 156.1 57.56 155.26 57.56C154.95 57.56 154.81 57.5 154.81 57.34C154.81 57.25 154.87 57.17 155.04 57.17C155.29 57.17 155.62 57.11 155.88 57.06C156.44 56.94 156.58 56.33 156.69 55.52C156.83 54.34 156.83 52.13 156.83 49.44ZM159.07 37.79V46.95C159.07 47.09 159.12 47.2 159.26 47.28C159.68 47.54 160.97 47.73 162.2 47.73C162.88 47.73 163.66 47.65 164.3 47.2C165.28 46.53 166.01 45.02 166.01 42.89C166.01 39.39 164.16 37.29 161.17 37.29C160.33 37.29 159.57 37.37 159.29 37.46C159.15 37.51 159.07 37.62 159.07 37.79ZM179.38 52.72V50.31C179.38 48.8 179.1 48.18 178.73 47.37C178.54 46.92 174.79 40.76 173.81 39.3C173.11 38.27 172.41 37.57 171.9 37.23C171.48 36.95 170.95 36.78 170.7 36.78C170.56 36.78 170.42 36.73 170.42 36.59C170.42 36.48 170.53 36.39 170.78 36.39C171.31 36.39 173.41 36.48 173.55 36.48C173.75 36.48 174.81 36.39 175.91 36.39C176.21 36.39 176.27 36.48 176.27 36.59C176.27 36.7 176.1 36.73 175.85 36.84C175.63 36.95 175.49 37.12 175.49 37.34C175.49 37.68 175.63 38.02 175.85 38.44C176.3 39.25 180.5 46.47 181 47.28C181.53 46.11 185.09 39.98 185.65 39.05C186.01 38.46 186.13 37.99 186.13 37.62C186.13 37.23 186.01 36.92 185.68 36.84C185.43 36.76 185.26 36.7 185.26 36.56C185.26 36.45 185.43 36.39 185.71 36.39C186.43 36.39 187.33 36.48 187.55 36.48C187.72 36.48 189.74 36.39 190.27 36.39C190.47 36.39 190.63 36.45 190.63 36.56C190.63 36.7 190.49 36.78 190.27 36.78C189.96 36.78 189.43 36.9 188.98 37.18C188.42 37.51 188.11 37.85 187.5 38.6C186.57 39.72 182.65 46.3 182.15 47.51C181.73 48.52 181.73 49.38 181.73 50.31V52.72C181.73 53.16 181.73 54.34 181.81 55.52C181.87 56.33 182.12 56.94 182.96 57.06C183.35 57.11 183.97 57.17 184.22 57.17C184.39 57.17 184.45 57.25 184.45 57.34C184.45 57.48 184.31 57.56 184 57.56C182.46 57.56 180.69 57.48 180.55 57.48C180.41 57.48 178.65 57.56 177.81 57.56C177.5 57.56 177.36 57.5 177.36 57.34C177.36 57.25 177.42 57.17 177.59 57.17C177.84 57.17 178.17 57.11 178.43 57.06C178.99 56.94 179.24 56.33 179.29 55.52C179.38 54.34 179.38 53.16 179.38 52.72ZM199.13 54.48L205.49 37.09C205.82 36.17 205.94 36 206.1 36C206.27 36 206.38 36.14 206.72 37.01C207.14 38.07 211.54 49.64 213.24 53.89C214.25 56.38 215.06 56.83 215.65 57C216.07 57.14 216.49 57.17 216.77 57.17C216.94 57.17 217.05 57.2 217.05 57.34C217.05 57.5 216.8 57.56 216.49 57.56C216.07 57.56 214.03 57.56 212.1 57.5C211.56 57.48 211.26 57.48 211.26 57.31C211.26 57.2 211.34 57.14 211.45 57.11C211.62 57.06 211.79 56.8 211.62 56.36L209.02 49.47C208.96 49.36 208.9 49.3 208.76 49.3H202.74C202.6 49.3 202.52 49.38 202.46 49.52L200.78 54.48C200.53 55.18 200.39 55.85 200.39 56.36C200.39 56.92 200.98 57.17 201.46 57.17H201.74C201.93 57.17 202.02 57.22 202.02 57.34C202.02 57.5 201.85 57.56 201.6 57.56C200.92 57.56 199.72 57.48 199.41 57.48C199.1 57.48 197.56 57.56 196.25 57.56C195.88 57.56 195.72 57.5 195.72 57.34C195.72 57.22 195.83 57.17 195.97 57.17C196.16 57.17 196.56 57.14 196.78 57.11C198.07 56.94 198.63 55.88 199.13 54.48ZM203.05 48.29H208.4C208.54 48.29 208.54 48.21 208.51 48.1L205.85 40.54C205.71 40.12 205.57 40.12 205.43 40.54L202.97 48.1C202.91 48.24 202.97 48.29 203.05 48.29ZM219.94 49.44V44.51C219.94 40.14 219.94 39.36 219.88 38.46C219.83 37.51 219.6 37.06 218.68 36.87C218.46 36.81 217.98 36.78 217.73 36.78C217.62 36.78 217.5 36.73 217.5 36.62C217.5 36.45 217.65 36.39 217.95 36.39C218.6 36.39 219.35 36.39 219.97 36.42L221.12 36.48C221.68 36.5 227.36 36.48 228 36.45C228.54 36.42 228.99 36.42 229.24 36.34C229.41 36.28 229.52 36.17 229.63 36.17C229.74 36.17 229.8 36.28 229.8 36.42C229.8 36.62 229.66 36.95 229.57 37.74C229.54 38.02 229.49 39.25 229.43 39.58C229.41 39.72 229.35 39.89 229.21 39.89C229.07 39.89 229.01 39.75 229.01 39.56C229.01 39.33 228.93 38.86 228.76 38.49C228.59 38.13 227.95 37.62 226.86 37.6L222.54 37.51C222.38 37.51 222.29 37.6 222.29 37.82V45.55C222.29 45.72 222.32 45.8 222.49 45.8L226.07 45.77C226.55 45.77 226.94 45.77 227.33 45.74C228 45.69 228.37 45.6 228.62 45.24C228.73 45.1 228.82 44.96 228.93 44.96C229.04 44.96 229.07 45.04 229.07 45.18C229.07 45.35 228.93 45.83 228.84 46.75C228.79 47.31 228.73 48.43 228.73 48.63C228.73 48.88 228.73 49.16 228.54 49.16C228.4 49.16 228.34 49.05 228.34 48.91C228.31 48.63 228.28 48.24 228.17 47.9C228.03 47.51 227.59 47 226.72 46.89C226.02 46.81 222.97 46.81 222.49 46.81C222.35 46.81 222.29 46.86 222.29 47.06V49.44C222.29 52.13 222.29 54.34 222.43 55.52C222.52 56.33 222.69 56.94 223.53 57.06C223.92 57.11 224.53 57.17 224.78 57.17C224.95 57.17 225.01 57.25 225.01 57.34C225.01 57.48 224.87 57.56 224.56 57.56C223.02 57.56 221.26 57.48 221.12 57.48C220.98 57.48 219.21 57.56 218.37 57.56C218.06 57.56 217.93 57.5 217.93 57.34C217.93 57.25 217.98 57.17 218.15 57.17C218.4 57.17 218.74 57.11 218.99 57.06C219.55 56.94 219.69 56.33 219.8 55.52C219.94 54.34 219.94 52.13 219.94 49.44ZM235.39 49.44V44.51C235.39 40.14 235.39 39.36 235.34 38.46C235.28 37.51 235.06 37.06 234.13 36.87C233.91 36.81 233.43 36.78 233.18 36.78C233.07 36.78 232.96 36.73 232.96 36.62C232.96 36.45 233.1 36.39 233.4 36.39C234.05 36.39 234.8 36.39 235.42 36.42L236.57 36.48C237.13 36.5 242.81 36.48 243.46 36.45C243.99 36.42 244.44 36.42 244.69 36.34C244.86 36.28 244.97 36.17 245.08 36.17C245.19 36.17 245.25 36.28 245.25 36.42C245.25 36.62 245.11 36.95 245.02 37.74C245 38.02 244.94 39.25 244.88 39.58C244.86 39.72 244.8 39.89 244.66 39.89C244.52 39.89 244.46 39.75 244.46 39.56C244.46 39.33 244.38 38.86 244.21 38.49C244.04 38.13 243.4 37.62 242.31 37.6L238 37.51C237.83 37.51 237.74 37.6 237.74 37.82V45.55C237.74 45.72 237.77 45.8 237.94 45.8L241.52 45.77C242 45.77 242.39 45.77 242.78 45.74C243.46 45.69 243.82 45.6 244.07 45.24C244.18 45.1 244.27 44.96 244.38 44.96C244.49 44.96 244.52 45.04 244.52 45.18C244.52 45.35 244.38 45.83 244.3 46.75C244.24 47.31 244.18 48.43 244.18 48.63C244.18 48.88 244.18 49.16 243.99 49.16C243.85 49.16 243.79 49.05 243.79 48.91C243.76 48.63 243.74 48.24 243.62 47.9C243.48 47.51 243.04 47 242.17 46.89C241.47 46.81 238.42 46.81 237.94 46.81C237.8 46.81 237.74 46.86 237.74 47.06V49.44C237.74 52.13 237.74 54.34 237.88 55.52C237.97 56.33 238.14 56.94 238.98 57.06C239.37 57.11 239.98 57.17 240.24 57.17C240.4 57.17 240.46 57.25 240.46 57.34C240.46 57.48 240.32 57.56 240.01 57.56C238.47 57.56 236.71 57.48 236.57 57.48C236.43 57.48 234.66 57.56 233.82 57.56C233.52 57.56 233.38 57.5 233.38 57.34C233.38 57.25 233.43 57.17 233.6 57.17C233.85 57.17 234.19 57.11 234.44 57.06C235 56.94 235.14 56.33 235.25 55.52C235.39 54.34 235.39 52.13 235.39 49.44ZM247.67 54.48L254.03 37.09C254.36 36.17 254.47 36 254.64 36C254.81 36 254.92 36.14 255.26 37.01C255.68 38.07 260.07 49.64 261.78 53.89C262.79 56.38 263.6 56.83 264.19 57C264.61 57.14 265.03 57.17 265.31 57.17C265.48 57.17 265.59 57.2 265.59 57.34C265.59 57.5 265.34 57.56 265.03 57.56C264.61 57.56 262.57 57.56 260.63 57.5C260.1 57.48 259.79 57.48 259.79 57.31C259.79 57.2 259.88 57.14 259.99 57.11C260.16 57.06 260.33 56.8 260.16 56.36L257.55 49.47C257.5 49.36 257.44 49.3 257.3 49.3H251.28C251.14 49.3 251.06 49.38 251 49.52L249.32 54.48C249.07 55.18 248.93 55.85 248.93 56.36C248.93 56.92 249.52 57.17 249.99 57.17H250.27C250.47 57.17 250.55 57.22 250.55 57.34C250.55 57.5 250.39 57.56 250.13 57.56C249.46 57.56 248.26 57.48 247.95 57.48C247.64 57.48 246.1 57.56 244.79 57.56C244.42 57.56 244.25 57.5 244.25 57.34C244.25 57.22 244.37 57.17 244.51 57.17C244.7 57.17 245.09 57.14 245.32 57.11C246.61 56.94 247.17 55.88 247.67 54.48ZM251.59 48.29H256.94C257.08 48.29 257.08 48.21 257.05 48.1L254.39 40.54C254.25 40.12 254.11 40.12 253.97 40.54L251.51 48.1C251.45 48.24 251.51 48.29 251.59 48.29ZM270.83 44.51V49.44C270.83 52.13 270.83 54.34 270.97 55.52C271.06 56.33 271.22 56.94 272.06 57.06C272.46 57.11 273.07 57.17 273.32 57.17C273.49 57.17 273.55 57.25 273.55 57.34C273.55 57.48 273.41 57.56 273.1 57.56C271.56 57.56 269.8 57.48 269.66 57.48C269.52 57.48 267.75 57.56 266.91 57.56C266.6 57.56 266.46 57.5 266.46 57.34C266.46 57.25 266.52 57.17 266.69 57.17C266.94 57.17 267.28 57.11 267.53 57.06C268.09 56.94 268.23 56.33 268.34 55.52C268.48 54.34 268.48 52.13 268.48 49.44V44.51C268.48 40.14 268.48 39.36 268.42 38.46C268.37 37.51 268.09 37.04 267.47 36.9C267.16 36.81 266.8 36.78 266.6 36.78C266.49 36.78 266.38 36.73 266.38 36.62C266.38 36.45 266.52 36.39 266.83 36.39C267.75 36.39 269.52 36.48 269.66 36.48C269.8 36.48 271.56 36.39 272.4 36.39C272.71 36.39 272.85 36.45 272.85 36.62C272.85 36.73 272.74 36.78 272.62 36.78C272.43 36.78 272.26 36.81 271.92 36.87C271.17 37.01 270.94 37.48 270.89 38.46C270.83 39.36 270.83 40.14 270.83 44.51ZM279.69 49.44V44.51C279.69 40.14 279.69 39.36 279.64 38.46C279.58 37.51 279.36 37.06 278.43 36.87C278.21 36.81 277.73 36.78 277.48 36.78C277.37 36.78 277.26 36.73 277.26 36.62C277.26 36.45 277.4 36.39 277.7 36.39C278.96 36.39 280.73 36.48 280.87 36.48C281.18 36.48 283.3 36.39 284.17 36.39C285.94 36.39 287.81 36.56 289.3 37.62C290 38.13 291.23 39.5 291.23 41.43C291.23 43.5 290.36 45.58 287.84 47.9C290.14 50.84 292.04 53.33 293.66 55.07C295.18 56.66 296.38 56.97 297.08 57.08C297.61 57.17 298 57.17 298.17 57.17C298.31 57.17 298.42 57.25 298.42 57.34C298.42 57.5 298.26 57.56 297.75 57.56H295.76C294.2 57.56 293.5 57.42 292.77 57.03C291.56 56.38 290.58 55.01 288.99 52.91C287.81 51.37 286.5 49.5 285.94 48.77C285.82 48.66 285.74 48.6 285.57 48.6L282.13 48.54C281.99 48.54 281.93 48.63 281.93 48.77V49.44C281.93 52.13 281.93 54.34 282.07 55.52C282.16 56.33 282.32 56.94 283.16 57.06C283.56 57.11 284.17 57.17 284.42 57.17C284.59 57.17 284.65 57.25 284.65 57.34C284.65 57.48 284.51 57.56 284.2 57.56C282.66 57.56 280.9 57.48 280.76 57.48C280.73 57.48 278.96 57.56 278.12 57.56C277.82 57.56 277.68 57.5 277.68 57.34C277.68 57.25 277.73 57.17 277.9 57.17C278.15 57.17 278.49 57.11 278.74 57.06C279.3 56.94 279.44 56.33 279.55 55.52C279.69 54.34 279.69 52.13 279.69 49.44ZM281.93 37.79V46.95C281.93 47.09 281.99 47.2 282.13 47.28C282.55 47.54 283.84 47.73 285.07 47.73C285.74 47.73 286.52 47.65 287.17 47.2C288.15 46.53 288.88 45.02 288.88 42.89C288.88 39.39 287.03 37.29 284.03 37.29C283.19 37.29 282.44 37.37 282.16 37.46C282.02 37.51 281.93 37.62 281.93 37.79ZM301.37 57.95C300.05 57.95 298.76 57.76 297.62 57.2C297.22 57 297.2 56.89 297.2 56.13C297.2 54.73 297.31 53.61 297.34 53.16C297.36 52.86 297.42 52.72 297.56 52.72C297.73 52.72 297.76 52.8 297.76 53.02C297.76 53.28 297.76 53.67 297.84 54.06C298.26 56.13 300.11 56.92 301.98 56.92C304.67 56.92 305.99 54.98 305.99 53.19C305.99 51.26 305.18 50.14 302.77 48.15L301.51 47.12C298.54 44.68 297.87 42.94 297.87 41.04C297.87 38.04 300.11 36 303.66 36C304.76 36 305.57 36.11 306.27 36.28C306.8 36.39 307.02 36.42 307.25 36.42C307.47 36.42 307.53 36.48 307.53 36.62C307.53 36.76 307.42 37.68 307.42 39.58C307.42 40.03 307.36 40.23 307.22 40.23C307.05 40.23 307.02 40.09 307 39.86C306.97 39.53 306.8 38.77 306.63 38.46C306.46 38.16 305.71 36.98 303.13 36.98C301.2 36.98 299.69 38.18 299.69 40.23C299.69 41.82 300.42 42.83 303.1 44.93L303.89 45.55C307.19 48.15 307.98 49.89 307.98 52.13C307.98 53.28 307.53 55.4 305.6 56.78C304.39 57.62 302.88 57.95 301.37 57.95ZM81.93 85.44V80.51C81.93 76.14 81.93 75.36 81.87 74.46C81.82 73.51 81.59 73.06 80.67 72.87C80.45 72.81 79.97 72.78 79.72 72.78C79.61 72.78 79.49 72.73 79.49 72.62C79.49 72.45 79.63 72.39 79.94 72.39C81.2 72.39 82.97 72.48 83.11 72.48C83.41 72.48 85.54 72.39 86.41 72.39C88.17 72.39 90.05 72.56 91.53 73.62C92.23 74.13 93.47 75.5 93.47 77.43C93.47 79.5 92.6 81.58 90.08 83.9C92.37 86.84 94.28 89.33 95.9 91.07C97.41 92.66 98.62 92.97 99.32 93.08C99.85 93.17 100.24 93.17 100.41 93.17C100.55 93.17 100.66 93.25 100.66 93.34C100.66 93.5 100.49 93.56 99.99 93.56H98C96.43 93.56 95.73 93.42 95.01 93.03C93.8 92.38 92.82 91.01 91.23 88.91C90.05 87.37 88.73 85.5 88.17 84.77C88.06 84.66 87.98 84.6 87.81 84.6L84.37 84.54C84.23 84.54 84.17 84.63 84.17 84.77V85.44C84.17 88.13 84.17 90.34 84.31 91.52C84.39 92.33 84.56 92.94 85.4 93.06C85.79 93.11 86.41 93.17 86.66 93.17C86.83 93.17 86.89 93.25 86.89 93.34C86.89 93.48 86.75 93.56 86.44 93.56C84.9 93.56 83.13 93.48 82.99 93.48C82.97 93.48 81.2 93.56 80.36 93.56C80.05 93.56 79.91 93.5 79.91 93.34C79.91 93.25 79.97 93.17 80.14 93.17C80.39 93.17 80.73 93.11 80.98 93.06C81.54 92.94 81.68 92.33 81.79 91.52C81.93 90.34 81.93 88.13 81.93 85.44ZM84.17 73.79V82.95C84.17 83.09 84.23 83.2 84.37 83.28C84.79 83.54 86.07 83.73 87.31 83.73C87.98 83.73 88.76 83.65 89.41 83.2C90.39 82.53 91.11 81.02 91.11 78.89C91.11 75.39 89.27 73.29 86.27 73.29C85.43 73.29 84.67 73.37 84.39 73.46C84.25 73.51 84.17 73.62 84.17 73.79ZM101.92 85.44V80.51C101.92 76.14 101.92 75.36 101.86 74.46C101.81 73.51 101.58 73.06 100.66 72.87C100.44 72.81 99.96 72.78 99.71 72.78C99.6 72.78 99.48 72.73 99.48 72.62C99.48 72.45 99.62 72.39 99.93 72.39C100.58 72.39 101.33 72.39 101.95 72.42L103.09 72.48C103.29 72.48 108.86 72.48 109.51 72.45C110.04 72.42 110.49 72.36 110.71 72.31C110.85 72.28 110.96 72.17 111.1 72.17C111.19 72.17 111.22 72.28 111.22 72.42C111.22 72.62 111.08 72.95 110.99 73.74C110.96 74.02 110.91 75.25 110.85 75.58C110.82 75.72 110.77 75.89 110.66 75.89C110.49 75.89 110.43 75.75 110.43 75.53C110.43 75.33 110.4 74.86 110.26 74.52C110.07 74.07 109.79 73.74 108.28 73.57C107.8 73.51 104.75 73.48 104.44 73.48C104.33 73.48 104.27 73.57 104.27 73.76V81.49C104.27 81.69 104.3 81.77 104.44 81.77C104.8 81.77 108.25 81.77 108.89 81.72C109.56 81.66 109.95 81.6 110.21 81.32C110.4 81.1 110.52 80.96 110.63 80.96C110.71 80.96 110.77 81.02 110.77 81.18C110.77 81.35 110.63 81.83 110.54 82.75C110.49 83.31 110.43 84.35 110.43 84.54C110.43 84.77 110.43 85.08 110.23 85.08C110.09 85.08 110.04 84.96 110.04 84.82C110.04 84.54 110.04 84.26 109.93 83.9C109.81 83.51 109.56 83.03 108.47 82.92C107.72 82.84 104.94 82.78 104.47 82.78C104.33 82.78 104.27 82.86 104.27 82.98V85.44C104.27 86.39 104.24 89.64 104.27 90.23C104.36 92.16 104.78 92.52 107.52 92.52C108.25 92.52 109.48 92.52 110.21 92.22C110.94 91.91 111.27 91.35 111.47 90.2C111.52 89.89 111.58 89.78 111.72 89.78C111.89 89.78 111.89 90 111.89 90.2C111.89 90.42 111.66 92.33 111.52 92.92C111.33 93.64 111.1 93.64 110.01 93.64C107.91 93.64 106.37 93.59 105.28 93.56C104.19 93.5 103.52 93.48 103.09 93.48C103.04 93.48 102.56 93.48 101.97 93.5C101.42 93.5 100.77 93.56 100.35 93.56C100.04 93.56 99.9 93.5 99.9 93.34C99.9 93.25 99.96 93.17 100.13 93.17C100.38 93.17 100.72 93.11 100.97 93.06C101.53 92.94 101.67 92.33 101.78 91.52C101.92 90.34 101.92 88.13 101.92 85.44ZM119.85 93.95C118.53 93.95 117.25 93.76 116.1 93.2C115.7 93 115.68 92.89 115.68 92.13C115.68 90.73 115.79 89.61 115.82 89.16C115.84 88.86 115.9 88.72 116.04 88.72C116.21 88.72 116.24 88.8 116.24 89.02C116.24 89.28 116.24 89.67 116.32 90.06C116.74 92.13 118.59 92.92 120.47 92.92C123.15 92.92 124.47 90.98 124.47 89.19C124.47 87.26 123.66 86.14 121.25 84.15L119.99 83.12C117.02 80.68 116.35 78.94 116.35 77.04C116.35 74.04 118.59 72 122.14 72C123.24 72 124.05 72.11 124.75 72.28C125.28 72.39 125.5 72.42 125.73 72.42C125.95 72.42 126.01 72.48 126.01 72.62C126.01 72.76 125.9 73.68 125.9 75.58C125.9 76.03 125.84 76.23 125.7 76.23C125.53 76.23 125.5 76.09 125.48 75.86C125.45 75.53 125.28 74.77 125.11 74.46C124.94 74.16 124.19 72.98 121.61 72.98C119.68 72.98 118.17 74.18 118.17 76.23C118.17 77.82 118.9 78.83 121.58 80.93L122.37 81.55C125.67 84.15 126.46 85.89 126.46 88.13C126.46 89.28 126.01 91.4 124.08 92.78C122.87 93.62 121.36 93.95 119.85 93.95ZM132.74 85.44V80.51C132.74 76.14 132.74 75.36 132.68 74.46C132.63 73.51 132.4 73.06 131.48 72.87C131.25 72.81 130.78 72.78 130.53 72.78C130.41 72.78 130.3 72.73 130.3 72.62C130.3 72.45 130.44 72.39 130.75 72.39C131.39 72.39 132.15 72.39 132.77 72.42L133.91 72.48C134.11 72.48 139.68 72.48 140.33 72.45C140.86 72.42 141.31 72.36 141.53 72.31C141.67 72.28 141.78 72.17 141.92 72.17C142.01 72.17 142.03 72.28 142.03 72.42C142.03 72.62 141.89 72.95 141.81 73.74C141.78 74.02 141.73 75.25 141.67 75.58C141.64 75.72 141.59 75.89 141.47 75.89C141.31 75.89 141.25 75.75 141.25 75.53C141.25 75.33 141.22 74.86 141.08 74.52C140.89 74.07 140.61 73.74 139.09 73.57C138.62 73.51 135.57 73.48 135.26 73.48C135.15 73.48 135.09 73.57 135.09 73.76V81.49C135.09 81.69 135.12 81.77 135.26 81.77C135.62 81.77 139.07 81.77 139.71 81.72C140.38 81.66 140.77 81.6 141.03 81.32C141.22 81.1 141.33 80.96 141.45 80.96C141.53 80.96 141.59 81.02 141.59 81.18C141.59 81.35 141.45 81.83 141.36 82.75C141.31 83.31 141.25 84.35 141.25 84.54C141.25 84.77 141.25 85.08 141.05 85.08C140.91 85.08 140.86 84.96 140.86 84.82C140.86 84.54 140.86 84.26 140.75 83.9C140.63 83.51 140.38 83.03 139.29 82.92C138.53 82.84 135.76 82.78 135.29 82.78C135.15 82.78 135.09 82.86 135.09 82.98V85.44C135.09 86.39 135.06 89.64 135.09 90.23C135.17 92.16 135.59 92.52 138.34 92.52C139.07 92.52 140.3 92.52 141.03 92.22C141.75 91.91 142.09 91.35 142.29 90.2C142.34 89.89 142.4 89.78 142.54 89.78C142.71 89.78 142.71 90 142.71 90.2C142.71 90.42 142.48 92.33 142.34 92.92C142.15 93.64 141.92 93.64 140.83 93.64C138.73 93.64 137.19 93.59 136.1 93.56C135.01 93.5 134.33 93.48 133.91 93.48C133.86 93.48 133.38 93.48 132.79 93.5C132.23 93.5 131.59 93.56 131.17 93.56C130.86 93.56 130.72 93.5 130.72 93.34C130.72 93.25 130.78 93.17 130.95 93.17C131.2 93.17 131.53 93.11 131.79 93.06C132.35 92.94 132.49 92.33 132.6 91.52C132.74 90.34 132.74 88.13 132.74 85.44ZM146.38 90.48L152.74 73.09C153.08 72.17 153.19 72 153.36 72C153.52 72 153.64 72.14 153.97 73.01C154.39 74.07 158.79 85.64 160.5 89.89C161.5 92.38 162.32 92.83 162.9 93C163.32 93.14 163.74 93.17 164.02 93.17C164.19 93.17 164.3 93.2 164.3 93.34C164.3 93.5 164.05 93.56 163.74 93.56C163.32 93.56 161.28 93.56 159.35 93.5C158.82 93.48 158.51 93.48 158.51 93.31C158.51 93.2 158.59 93.14 158.7 93.11C158.87 93.06 159.04 92.8 158.87 92.36L156.27 85.47C156.21 85.36 156.16 85.3 156.02 85.3H150C149.86 85.3 149.77 85.38 149.72 85.52L148.04 90.48C147.78 91.18 147.64 91.85 147.64 92.36C147.64 92.92 148.23 93.17 148.71 93.17H148.99C149.18 93.17 149.27 93.22 149.27 93.34C149.27 93.5 149.1 93.56 148.85 93.56C148.18 93.56 146.97 93.48 146.66 93.48C146.36 93.48 144.82 93.56 143.5 93.56C143.14 93.56 142.97 93.5 142.97 93.34C142.97 93.22 143.08 93.17 143.22 93.17C143.42 93.17 143.81 93.14 144.03 93.11C145.32 92.94 145.88 91.88 146.38 90.48ZM150.3 84.29H155.65C155.79 84.29 155.79 84.21 155.76 84.1L153.1 76.54C152.96 76.12 152.82 76.12 152.68 76.54L150.22 84.1C150.16 84.24 150.22 84.29 150.3 84.29ZM167.19 85.44V80.51C167.19 76.14 167.19 75.36 167.14 74.46C167.08 73.51 166.86 73.06 165.93 72.87C165.71 72.81 165.23 72.78 164.98 72.78C164.87 72.78 164.76 72.73 164.76 72.62C164.76 72.45 164.9 72.39 165.21 72.39C166.47 72.39 168.23 72.48 168.37 72.48C168.68 72.48 170.81 72.39 171.67 72.39C173.44 72.39 175.31 72.56 176.8 73.62C177.5 74.13 178.73 75.5 178.73 77.43C178.73 79.5 177.86 81.58 175.34 83.9C177.64 86.84 179.54 89.33 181.16 91.07C182.68 92.66 183.88 92.97 184.58 93.08C185.11 93.17 185.5 93.17 185.67 93.17C185.81 93.17 185.93 93.25 185.93 93.34C185.93 93.5 185.76 93.56 185.25 93.56H183.26C181.7 93.56 181 93.42 180.27 93.03C179.06 92.38 178.09 91.01 176.49 88.91C175.31 87.37 174 85.5 173.44 84.77C173.32 84.66 173.24 84.6 173.07 84.6L169.63 84.54C169.49 84.54 169.43 84.63 169.43 84.77V85.44C169.43 88.13 169.43 90.34 169.57 91.52C169.66 92.33 169.82 92.94 170.66 93.06C171.06 93.11 171.67 93.17 171.93 93.17C172.09 93.17 172.15 93.25 172.15 93.34C172.15 93.48 172.01 93.56 171.7 93.56C170.16 93.56 168.4 93.48 168.26 93.48C168.23 93.48 166.47 93.56 165.62 93.56C165.32 93.56 165.18 93.5 165.18 93.34C165.18 93.25 165.23 93.17 165.4 93.17C165.65 93.17 165.99 93.11 166.24 93.06C166.8 92.94 166.94 92.33 167.05 91.52C167.19 90.34 167.19 88.13 167.19 85.44ZM169.43 73.79V82.95C169.43 83.09 169.49 83.2 169.63 83.28C170.05 83.54 171.34 83.73 172.57 83.73C173.24 83.73 174.03 83.65 174.67 83.2C175.65 82.53 176.38 81.02 176.38 78.89C176.38 75.39 174.53 73.29 171.53 73.29C170.69 73.29 169.94 73.37 169.66 73.46C169.52 73.51 169.43 73.62 169.43 73.79ZM197.03 93.95C192.83 93.95 190 92.92 187.79 90.93C185.07 88.49 184.4 85.3 184.4 82.64C184.4 80.76 185.04 77.49 187.54 75C189.22 73.32 191.76 72 196.08 72C197.2 72 198.76 72.08 200.14 72.34C201.2 72.53 202.1 72.7 202.99 72.76C203.3 72.78 203.36 72.9 203.36 73.06C203.36 73.29 203.27 73.62 203.22 74.63C203.16 75.56 203.16 77.1 203.13 77.52C203.1 77.94 203.05 78.1 202.88 78.1C202.69 78.1 202.66 77.91 202.66 77.52C202.66 76.42 202.21 75.28 201.48 74.66C200.5 73.82 198.34 73.06 195.88 73.06C192.16 73.06 190.42 74.16 189.44 75.11C187.4 77.07 186.92 79.56 186.92 82.42C186.92 87.76 191.04 92.66 197.03 92.66C199.13 92.66 200.78 92.41 201.9 91.26C202.49 90.65 202.85 89.42 202.94 88.91C202.99 88.6 203.05 88.49 203.22 88.49C203.36 88.49 203.41 88.69 203.41 88.91C203.41 89.11 203.08 91.54 202.8 92.5C202.63 93.03 202.57 93.08 202.07 93.31C200.95 93.76 198.82 93.95 197.03 93.95ZM225.92 80.51V85.44C225.92 88.13 225.92 90.34 226.06 91.52C226.14 92.33 226.31 92.94 227.15 93.06C227.54 93.11 228.16 93.17 228.41 93.17C228.58 93.17 228.63 93.25 228.63 93.34C228.63 93.48 228.49 93.56 228.18 93.56C226.64 93.56 224.88 93.48 224.74 93.48C224.6 93.48 222.84 93.56 222 93.56C221.69 93.56 221.55 93.5 221.55 93.34C221.55 93.25 221.6 93.17 221.77 93.17C222.02 93.17 222.36 93.11 222.61 93.06C223.17 92.94 223.31 92.33 223.42 91.52C223.56 90.34 223.56 88.13 223.56 85.44V82.5C223.56 82.39 223.48 82.33 223.4 82.33H211.52C211.44 82.33 211.36 82.36 211.36 82.5V85.44C211.36 88.13 211.36 90.34 211.5 91.52C211.58 92.33 211.75 92.94 212.59 93.06C212.98 93.11 213.6 93.17 213.85 93.17C214.02 93.17 214.07 93.25 214.07 93.34C214.07 93.48 213.93 93.56 213.62 93.56C212.08 93.56 210.32 93.48 210.18 93.48C210.04 93.48 208.28 93.56 207.44 93.56C207.13 93.56 206.99 93.5 206.99 93.34C206.99 93.25 207.04 93.17 207.21 93.17C207.46 93.17 207.8 93.11 208.05 93.06C208.61 92.94 208.75 92.33 208.86 91.52C209 90.34 209 88.13 209 85.44V80.51C209 76.14 209 75.36 208.95 74.46C208.89 73.51 208.67 73.06 207.74 72.87C207.52 72.81 207.04 72.78 206.79 72.78C206.68 72.78 206.57 72.73 206.57 72.62C206.57 72.45 206.71 72.39 207.02 72.39C208.28 72.39 210.04 72.48 210.18 72.48C210.32 72.48 212.08 72.39 212.92 72.39C213.23 72.39 213.37 72.45 213.37 72.62C213.37 72.73 213.26 72.78 213.15 72.78C212.95 72.78 212.78 72.81 212.45 72.87C211.69 73.01 211.47 73.48 211.41 74.46C211.36 75.36 211.36 76.14 211.36 80.51V81.1C211.36 81.24 211.44 81.27 211.52 81.27H223.4C223.48 81.27 223.56 81.24 223.56 81.1V80.51C223.56 76.14 223.56 75.36 223.51 74.46C223.45 73.51 223.23 73.06 222.3 72.87C222.08 72.81 221.6 72.78 221.35 72.78C221.24 72.78 221.13 72.73 221.13 72.62C221.13 72.45 221.27 72.39 221.58 72.39C222.84 72.39 224.6 72.48 224.74 72.48C224.88 72.48 226.64 72.39 227.48 72.39C227.79 72.39 227.93 72.45 227.93 72.62C227.93 72.73 227.82 72.78 227.71 72.78C227.51 72.78 227.34 72.81 227.01 72.87C226.25 73.01 226.03 73.48 225.97 74.46C225.92 75.36 225.92 76.14 225.92 80.51Z" fill="#676767"/></svg>